<?xml version="1.0" standalone="no"?>
<!DOCTYPE svg PUBLIC "-//W3C//DTD SVG 20010904//EN"
 "http://www.w3.org/TR/2001/REC-SVG-20010904/DTD/svg10.dtd">
<svg version="1.0" xmlns="http://www.w3.org/2000/svg"
 width="500.000000pt" height="500.000000pt" viewBox="0 0 500.000000 500.000000"
 preserveAspectRatio="xMidYMid meet">
<metadata>
Created by potrace 1.14, written by Peter Selinger 2001-2017
</metadata>
<g transform="translate(0.000000,500.000000) scale(0.100000,-0.100000)"
fill="#000000" stroke="none">
<path d="M2450 4293 c-19 -9 -37 -17 -40 -18 -3 -1 -32 -14 -65 -29 -33 -15
-73 -34 -90 -41 -92 -40 -151 -69 -162 -77 -9 -7 -8 -19 3 -50 20 -58 18 -65
-23 -79 -21 -6 -42 -15 -48 -19 -11 -8 -70 -23 -81 -20 -4 1 -10 -2 -13 -7 -3
-5 -32 -17 -64 -26 -31 -10 -74 -25 -95 -34 -20 -9 -39 -17 -42 -17 -23 -3
-157 -53 -162 -61 -4 -5 -8 -7 -8 -4 0 3 -42 -9 -92 -26 l-93 -33 1 -118 c1
-126 13 -406 20 -489 2 -27 6 -86 8 -130 3 -44 7 -98 11 -120 3 -22 8 -62 10
-90 9 -84 12 -101 20 -115 6 -9 4 -11 -5 -5 -9 6 -11 4 -5 -5 4 -7 9 -24 10
-39 9 -89 18 -143 30 -192 8 -30 16 -64 18 -75 3 -17 15 -45 64 -151 8 -18 19
-33 24 -33 5 0 9 -6 9 -12 0 -7 16 -31 35 -52 19 -22 35 -43 35 -47 0 -16 197
-206 302 -291 31 -25 54 -48 51 -52 -4 -3 -25 -6 -49 -6 -25 0 -43 -5 -46 -12
-2 -7 -4 -152 -3 -323 l0 -310 185 0 184 0 1 50 c1 77 4 75 -100 75 -52 0 -97
4 -100 10 -3 6 -1 10 4 10 6 0 11 8 11 18 0 25 36 87 49 84 6 -1 11 3 11 9 0
8 4 9 13 0 8 -6 16 -8 20 -5 3 3 23 7 44 7 21 1 38 7 38 12 0 21 17 34 42 32
21 -2 26 -8 29 -35 2 -18 8 -41 14 -51 5 -10 6 -21 3 -25 -3 -3 0 -6 7 -6 7 0
10 -3 7 -6 -15 -16 126 -170 145 -158 4 3 8 1 8 -3 0 -26 153 -39 228 -20 46
12 142 77 142 96 0 6 5 11 10 11 6 0 10 5 10 12 0 6 7 19 15 28 14 16 24 70
29 162 3 51 -7 61 -61 62 -22 1 -46 16 -24 16 7 0 9 5 6 10 -3 5 -1 10 4 10 6
0 11 7 11 16 0 8 5 12 10 9 6 -3 17 0 25 9 19 19 20 66 1 66 -12 0 -38 46 -42
77 -1 6 23 28 53 48 30 20 67 47 81 60 61 54 75 65 84 65 4 0 8 7 8 15 0 8 5
15 11 15 18 0 185 174 249 261 54 73 85 127 120 214 9 20 36 138 44 187 3 15
7 32 11 38 3 5 0 10 -7 10 -10 0 -10 2 1 9 8 5 11 16 8 24 -3 8 -3 18 0 21 6
6 15 89 17 153 1 18 3 33 6 33 4 0 10 79 14 187 1 18 3 33 6 33 3 0 6 28 6 63
1 34 5 130 9 212 4 83 8 215 9 295 l1 144 -40 14 c-44 15 -69 23 -72 23 -2 0
-18 6 -38 15 -19 8 -35 11 -35 7 0 -5 -4 -2 -8 4 -4 7 -17 14 -27 16 -11 2
-33 9 -48 16 -16 6 -33 9 -38 5 -5 -3 -9 -1 -9 5 0 5 -21 16 -47 24 -27 8
-112 38 -190 65 -79 28 -143 49 -143 46 0 -3 -10 4 -21 15 -19 17 -20 24 -10
48 26 63 24 69 -37 99 -31 15 -61 29 -67 30 -26 6 -120 50 -123 57 -2 4 -10 7
-18 7 -8 0 -36 11 -62 25 -64 34 -100 38 -142 18z m355 -2985 c-1 -13 -3 -28
-4 -33 0 -6 -14 -18 -30 -28 -27 -16 -29 -16 -45 2 -9 9 -16 22 -16 27 0 5 -9
16 -19 24 -31 21 -15 30 53 30 60 0 63 -1 61 -22z"/>
<path d="M3493 1740 c-18 -4 -33 -5 -33 -3 0 3 -7 0 -15 -7 -8 -7 -15 -9 -15
-5 0 8 -39 -16 -71 -43 -10 -9 -19 -23 -19 -31 0 -8 -3 -11 -7 -7 -4 3 -12 -8
-18 -26 -13 -38 -9 -131 5 -136 6 -2 10 -10 10 -17 0 -21 54 -61 151 -111 84
-43 89 -48 89 -78 0 -17 -4 -36 -8 -42 -29 -44 -142 -35 -211 18 -13 10 -27
18 -30 18 -11 0 -72 -110 -67 -119 8 -12 79 -49 127 -65 84 -29 207 -13 281
37 56 38 83 140 57 211 -12 31 -79 94 -94 88 -4 -2 -11 1 -14 6 -3 5 -39 26
-79 46 -73 37 -94 61 -84 98 11 42 79 51 158 21 l51 -20 21 41 c30 55 28 72
-10 93 -36 19 -36 18 -93 28 -22 4 -42 8 -45 9 -3 2 -20 0 -37 -4z"/>
<path d="M1485 1714 c-10 -8 -16 -14 -12 -14 3 0 -6 -26 -20 -57 -14 -32 -25
-60 -25 -63 -1 -8 -18 -53 -33 -85 -20 -44 -37 -93 -35 -101 1 -4 -3 -10 -9
-14 -6 -3 -13 -16 -16 -28 -2 -12 -7 -28 -12 -35 -4 -6 -8 -14 -9 -17 -1 -7
-13 -36 -50 -124 -19 -44 -32 -82 -29 -84 3 -3 38 -7 79 -9 l74 -3 7 36 c3 20
13 50 21 68 l15 31 119 -1 c131 -1 144 -6 154 -58 11 -60 26 -71 105 -72 39
-1 71 0 71 2 0 2 -9 25 -19 53 -11 27 -17 52 -14 55 4 3 1 6 -5 6 -7 0 -12 8
-13 18 0 9 -11 39 -24 67 -13 27 -21 53 -19 57 3 5 0 8 -5 8 -6 0 -11 6 -11
13 0 8 -7 28 -15 45 -9 17 -18 41 -20 53 -3 13 -8 25 -12 28 -5 3 -9 13 -11
21 -1 8 -7 24 -12 35 -5 11 -25 56 -43 100 l-34 80 -59 1 c-37 1 -67 -3 -79
-12z m80 -202 c6 -4 11 -13 13 -21 2 -8 10 -30 19 -50 9 -20 17 -44 19 -53 2
-10 5 -23 6 -30 2 -10 -15 -13 -67 -13 -79 0 -81 3 -45 78 10 21 22 51 25 67
7 31 13 35 30 22z"/>
<path d="M3029 1598 c-2 -271 1 -502 7 -507 3 -3 34 -6 69 -7 62 -1 63 -1 67
28 4 23 3 584 -1 611 -1 4 -32 7 -71 7 l-70 0 -1 -132z"/>
</g>
</svg>
